<?xml version="1.0" encoding="UTF-8" standalone="no"?><diagram id="SNbYQcsz_Utg5FWgZMJS" name="Page-1"><mxGraphModel arrows="1" connect="1" dx="332" dy="241" fold="1" grid="1" gridSize="10" guides="1" math="0" page="1" pageHeight="1100" pageScale="1" pageWidth="850" shadow="0" tooltips="1"><root><mxCell id="0"/><mxCell id="1" parent="0"/><mxCell id="2" parent="1" style="swimlane;fontStyle=0;align=center;verticalAlign=top;childLayout=stackLayout;horizontal=1;startSize=30;horizontalStack=0;resizeParent=1;resizeParentMax=0;resizeLast=0;collapsible=0;marginBottom=0;html=1;" value="Laeufer" vertex="1"><mxGeometry as="geometry" height="138" width="225" x="70" y="80"/></mxCell><mxCell id="3" parent="2" style="line;strokeWidth=1;fillColor=none;align=left;verticalAlign=middle;spacingTop=-1;spacingLeft=3;spacingRight=3;rotatable=0;labelPosition=right;points=[];portConstraint=eastwest;" vertex="1"><mxGeometry as="geometry" height="8" width="225" y="26"/></mxCell><mxCell id="4" parent="2" style="text;html=1;strokeColor=none;fillColor=none;align=left;verticalAlign=middle;spacingLeft=4;spacingRight=4;overflow=hidden;rotatable=0;points=[[0,0.5],[1,0.5]];portConstraint=eastwest;" value="+ Laeufer(farbe:String, x:int, y:int, board:Board)" vertex="1"><mxGeometry as="geometry" height="19" width="225" y="34"/></mxCell><mxCell id="5" parent="2" style="text;html=1;strokeColor=none;fillColor=none;align=left;verticalAlign=middle;spacingLeft=4;spacingRight=4;overflow=hidden;rotatable=0;points=[[0,0.5],[1,0.5]];portConstraint=eastwest;" value="+ getName(): String" vertex="1"><mxGeometry as="geometry" height="19" width="225" y="50"/></mxCell><mxCell id="6" parent="2" style="text;html=1;strokeColor=none;fillColor=none;align=left;verticalAlign=middle;spacingLeft=4;spacingRight=4;overflow=hidden;rotatable=0;points=[[0,0.5],[1,0.5]];portConstraint=eastwest;" value="+ getWert(): int" vertex="1"><mxGeometry as="geometry" height="19" width="225" y="66"/></mxCell><mxCell id="7" parent="2" style="text;html=1;strokeColor=none;fillColor=none;align=left;verticalAlign=middle;spacingLeft=4;spacingRight=4;overflow=hidden;rotatable=0;points=[[0,0.5],[1,0.5]];portConstraint=eastwest;" value="+ getMoeglicheZuege(): Zug[]" vertex="1"><mxGeometry as="geometry" height="19" width="225" y="82"/></mxCell><mxCell id="8" parent="1" style="swimlane;fontStyle=0;align=center;verticalAlign=top;childLayout=stackLayout;horizontal=1;startSize=30;horizontalStack=0;resizeParent=1;resizeParentMax=0;resizeLast=0;collapsible=0;marginBottom=0;html=1;" value="Bauer" vertex="1"><mxGeometry as="geometry" height="138" width="225" x="430" y="80"/></mxCell><mxCell id="9" parent="8" style="line;strokeWidth=1;fillColor=none;align=left;verticalAlign=middle;spacingTop=-1;spacingLeft=3;spacingRight=3;rotatable=0;labelPosition=right;points=[];portConstraint=eastwest;" vertex="1"><mxGeometry as="geometry" height="8" width="225" y="26"/></mxCell><mxCell id="10" parent="8" style="text;html=1;strokeColor=none;fillColor=none;align=left;verticalAlign=middle;spacingLeft=4;spacingRight=4;overflow=hidden;rotatable=0;points=[[0,0.5],[1,0.5]];portConstraint=eastwest;" value="+ Bauer(farbe:String, x:int, y:int, board:Board)" vertex="1"><mxGeometry as="geometry" height="19" width="225" y="34"/></mxCell><mxCell id="11" parent="8" style="text;html=1;strokeColor=none;fillColor=none;align=left;verticalAlign=middle;spacingLeft=4;spacingRight=4;overflow=hidden;rotatable=0;points=[[0,0.5],[1,0.5]];portConstraint=eastwest;" value="+ getName(): String" vertex="1"><mxGeometry as="geometry" height="19" width="225" y="50"/></mxCell><mxCell id="12" parent="8" style="text;html=1;strokeColor=none;fillColor=none;align=left;verticalAlign=middle;spacingLeft=4;spacingRight=4;overflow=hidden;rotatable=0;points=[[0,0.5],[1,0.5]];portConstraint=eastwest;" value="+ getWert(): int" vertex="1"><mxGeometry as="geometry" height="19" width="225" y="66"/></mxCell><mxCell id="13" parent="8" style="text;html=1;strokeColor=none;fillColor=none;align=left;verticalAlign=middle;spacingLeft=4;spacingRight=4;overflow=hidden;rotatable=0;points=[[0,0.5],[1,0.5]];portConstraint=eastwest;" value="+ getMoeglicheZuege(): Zug[]" vertex="1"><mxGeometry as="geometry" height="19" width="225" y="82"/></mxCell><mxCell id="14" parent="1" style="swimlane;fontStyle=0;align=center;verticalAlign=top;childLayout=stackLayout;horizontal=1;startSize=30;horizontalStack=0;resizeParent=1;resizeParentMax=0;resizeLast=0;collapsible=0;marginBottom=0;html=1;" value="Koenig" vertex="1"><mxGeometry as="geometry" height="138" width="225" x="790" y="80"/></mxCell><mxCell id="15" parent="14" style="line;strokeWidth=1;fillColor=none;align=left;verticalAlign=middle;spacingTop=-1;spacingLeft=3;spacingRight=3;rotatable=0;labelPosition=right;points=[];portConstraint=eastwest;" vertex="1"><mxGeometry as="geometry" height="8" width="225" y="26"/></mxCell><mxCell id="16" parent="14" style="text;html=1;strokeColor=none;fillColor=none;align=left;verticalAlign=middle;spacingLeft=4;spacingRight=4;overflow=hidden;rotatable=0;points=[[0,0.5],[1,0.5]];portConstraint=eastwest;" value="+ Koenig(farbe:String, x:int, y:int, board:Board)" vertex="1"><mxGeometry as="geometry" height="19" width="225" y="34"/></mxCell><mxCell id="17" parent="14" style="text;html=1;strokeColor=none;fillColor=none;align=left;verticalAlign=middle;spacingLeft=4;spacingRight=4;overflow=hidden;rotatable=0;points=[[0,0.5],[1,0.5]];portConstraint=eastwest;" value="+ getName(): String" vertex="1"><mxGeometry as="geometry" height="19" width="225" y="50"/></mxCell><mxCell id="18" parent="14" style="text;html=1;strokeColor=none;fillColor=none;align=left;verticalAlign=middle;spacingLeft=4;spacingRight=4;overflow=hidden;rotatable=0;points=[[0,0.5],[1,0.5]];portConstraint=eastwest;" value="+ getWert(): int" vertex="1"><mxGeometry as="geometry" height="19" width="225" y="66"/></mxCell><mxCell id="19" parent="14" style="text;html=1;strokeColor=none;fillColor=none;align=left;verticalAlign=middle;spacingLeft=4;spacingRight=4;overflow=hidden;rotatable=0;points=[[0,0.5],[1,0.5]];portConstraint=eastwest;" value="+ getMoeglicheZuege(): Zug[]" vertex="1"><mxGeometry as="geometry" height="19" width="225" y="82"/></mxCell><mxCell id="20" parent="1" style="swimlane;fontStyle=0;align=center;verticalAlign=top;childLayout=stackLayout;horizontal=1;startSize=30;horizontalStack=0;resizeParent=1;resizeParentMax=0;resizeLast=0;collapsible=0;marginBottom=0;html=1;" value="Schachfigur" vertex="1"><mxGeometry as="geometry" height="580" width="225" x="70" y="740"/></mxCell><mxCell id="21" parent="20" style="text;html=1;strokeColor=none;fillColor=none;align=left;verticalAlign=middle;spacingLeft=4;spacingRight=4;overflow=hidden;rotatable=0;points=[[0,0.5],[1,0.5]];portConstraint=eastwest;" value="+  &lt;u&gt;WEISS : boolean &lt;/u&gt; " vertex="1"><mxGeometry as="geometry" height="19" width="225" y="26"/></mxCell><mxCell id="22" parent="20" style="text;html=1;strokeColor=none;fillColor=none;align=left;verticalAlign=middle;spacingLeft=4;spacingRight=4;overflow=hidden;rotatable=0;points=[[0,0.5],[1,0.5]];portConstraint=eastwest;" value="+  &lt;u&gt;SCHWARZ : boolean &lt;/u&gt; " vertex="1"><mxGeometry as="geometry" height="19" width="225" y="42"/></mxCell><mxCell id="23" parent="20" style="text;html=1;strokeColor=none;fillColor=none;align=left;verticalAlign=middle;spacingLeft=4;spacingRight=4;overflow=hidden;rotatable=0;points=[[0,0.5],[1,0.5]];portConstraint=eastwest;" value="- farbe : boolean" vertex="1"><mxGeometry as="geometry" height="19" width="225" y="58"/></mxCell><mxCell id="24" parent="20" style="text;html=1;strokeColor=none;fillColor=none;align=left;verticalAlign=middle;spacingLeft=4;spacingRight=4;overflow=hidden;rotatable=0;points=[[0,0.5],[1,0.5]];portConstraint=eastwest;" value="- positionX : int" vertex="1"><mxGeometry as="geometry" height="19" width="225" y="74"/></mxCell><mxCell id="25" parent="20" style="text;html=1;strokeColor=none;fillColor=none;align=left;verticalAlign=middle;spacingLeft=4;spacingRight=4;overflow=hidden;rotatable=0;points=[[0,0.5],[1,0.5]];portConstraint=eastwest;" value="- positionY : int" vertex="1"><mxGeometry as="geometry" height="19" width="225" y="90"/></mxCell><mxCell id="26" parent="20" style="text;html=1;strokeColor=none;fillColor=none;align=left;verticalAlign=middle;spacingLeft=4;spacingRight=4;overflow=hidden;rotatable=0;points=[[0,0.5],[1,0.5]];portConstraint=eastwest;" value="- board : Board" vertex="1"><mxGeometry as="geometry" height="19" width="225" y="106"/></mxCell><mxCell id="27" parent="20" style="line;strokeWidth=1;fillColor=none;align=left;verticalAlign=middle;spacingTop=-1;spacingLeft=3;spacingRight=3;rotatable=0;labelPosition=right;points=[];portConstraint=eastwest;" vertex="1"><mxGeometry as="geometry" height="8" width="225" y="122"/></mxCell><mxCell id="28" parent="20" style="text;html=1;strokeColor=none;fillColor=none;align=left;verticalAlign=middle;spacingLeft=4;spacingRight=4;overflow=hidden;rotatable=0;points=[[0,0.5],[1,0.5]];portConstraint=eastwest;" value="+ Schachfigur(farbe:boolean, x:int, y:int, board:Board)" vertex="1"><mxGeometry as="geometry" height="19" width="225" y="130"/></mxCell><mxCell id="29" parent="20" style="text;html=1;strokeColor=none;fillColor=none;align=left;verticalAlign=middle;spacingLeft=4;spacingRight=4;overflow=hidden;rotatable=0;points=[[0,0.5],[1,0.5]];portConstraint=eastwest;" value="+ Schachfigur(farbe:String, x:int, y:int, board:Board)" vertex="1"><mxGeometry as="geometry" height="19" width="225" y="146"/></mxCell><mxCell id="30" parent="20" style="text;html=1;strokeColor=none;fillColor=none;align=left;verticalAlign=middle;spacingLeft=4;spacingRight=4;overflow=hidden;rotatable=0;points=[[0,0.5],[1,0.5]];portConstraint=eastwest;" value="+ getName(): String" vertex="1"><mxGeometry as="geometry" height="19" width="225" y="162"/></mxCell><mxCell id="31" parent="20" style="text;html=1;strokeColor=none;fillColor=none;align=left;verticalAlign=middle;spacingLeft=4;spacingRight=4;overflow=hidden;rotatable=0;points=[[0,0.5],[1,0.5]];portConstraint=eastwest;" value="+ getPositionX(): int" vertex="1"><mxGeometry as="geometry" height="19" width="225" y="178"/></mxCell><mxCell id="32" parent="20" style="text;html=1;strokeColor=none;fillColor=none;align=left;verticalAlign=middle;spacingLeft=4;spacingRight=4;overflow=hidden;rotatable=0;points=[[0,0.5],[1,0.5]];portConstraint=eastwest;" value="+ getPositionY(): int" vertex="1"><mxGeometry as="geometry" height="19" width="225" y="194"/></mxCell><mxCell id="33" parent="20" style="text;html=1;strokeColor=none;fillColor=none;align=left;verticalAlign=middle;spacingLeft=4;spacingRight=4;overflow=hidden;rotatable=0;points=[[0,0.5],[1,0.5]];portConstraint=eastwest;" value="+ setPosition(x:int, y:int): void" vertex="1"><mxGeometry as="geometry" height="19" width="225" y="210"/></mxCell><mxCell id="34" parent="20" style="text;html=1;strokeColor=none;fillColor=none;align=left;verticalAlign=middle;spacingLeft=4;spacingRight=4;overflow=hidden;rotatable=0;points=[[0,0.5],[1,0.5]];portConstraint=eastwest;" value="+ getBoard(): Board" vertex="1"><mxGeometry as="geometry" height="19" width="225" y="226"/></mxCell><mxCell id="35" parent="20" style="text;html=1;strokeColor=none;fillColor=none;align=left;verticalAlign=middle;spacingLeft=4;spacingRight=4;overflow=hidden;rotatable=0;points=[[0,0.5],[1,0.5]];portConstraint=eastwest;" value="+ getWert(): int" vertex="1"><mxGeometry as="geometry" height="19" width="225" y="242"/></mxCell><mxCell id="36" parent="20" style="text;html=1;strokeColor=none;fillColor=none;align=left;verticalAlign=middle;spacingLeft=4;spacingRight=4;overflow=hidden;rotatable=0;points=[[0,0.5],[1,0.5]];portConstraint=eastwest;" value="+ getMoeglicheZuege(): Zug[]" vertex="1"><mxGeometry as="geometry" height="19" width="225" y="258"/></mxCell><mxCell id="37" parent="20" style="text;html=1;strokeColor=none;fillColor=none;align=left;verticalAlign=middle;spacingLeft=4;spacingRight=4;overflow=hidden;rotatable=0;points=[[0,0.5],[1,0.5]];portConstraint=eastwest;" value="+ isWeiss(): boolean" vertex="1"><mxGeometry as="geometry" height="19" width="225" y="274"/></mxCell><mxCell id="38" parent="20" style="text;html=1;strokeColor=none;fillColor=none;align=left;verticalAlign=middle;spacingLeft=4;spacingRight=4;overflow=hidden;rotatable=0;points=[[0,0.5],[1,0.5]];portConstraint=eastwest;" value="+ isSchwarz(): boolean" vertex="1"><mxGeometry as="geometry" height="19" width="225" y="290"/></mxCell><mxCell id="39" parent="20" style="text;html=1;strokeColor=none;fillColor=none;align=left;verticalAlign=middle;spacingLeft=4;spacingRight=4;overflow=hidden;rotatable=0;points=[[0,0.5],[1,0.5]];portConstraint=eastwest;" value="+ isFarbe(farbe:boolean): boolean" vertex="1"><mxGeometry as="geometry" height="19" width="225" y="306"/></mxCell><mxCell id="40" parent="20" style="text;html=1;strokeColor=none;fillColor=none;align=left;verticalAlign=middle;spacingLeft=4;spacingRight=4;overflow=hidden;rotatable=0;points=[[0,0.5],[1,0.5]];portConstraint=eastwest;" value="+ isFarbe(farbe:String): boolean" vertex="1"><mxGeometry as="geometry" height="19" width="225" y="322"/></mxCell><mxCell id="41" parent="20" style="text;html=1;strokeColor=none;fillColor=none;align=left;verticalAlign=middle;spacingLeft=4;spacingRight=4;overflow=hidden;rotatable=0;points=[[0,0.5],[1,0.5]];portConstraint=eastwest;" value="+ getFarbeString(): String" vertex="1"><mxGeometry as="geometry" height="19" width="225" y="338"/></mxCell><mxCell id="42" parent="20" style="text;html=1;strokeColor=none;fillColor=none;align=left;verticalAlign=middle;spacingLeft=4;spacingRight=4;overflow=hidden;rotatable=0;points=[[0,0.5],[1,0.5]];portConstraint=eastwest;" value="+ getFarbe(): boolean" vertex="1"><mxGeometry as="geometry" height="19" width="225" y="354"/></mxCell><mxCell id="43" parent="1" style="swimlane;fontStyle=0;align=center;verticalAlign=top;childLayout=stackLayout;horizontal=1;startSize=30;horizontalStack=0;resizeParent=1;resizeParentMax=0;resizeLast=0;collapsible=0;marginBottom=0;html=1;" value="Turm" vertex="1"><mxGeometry as="geometry" height="138" width="225" x="430" y="740"/></mxCell><mxCell id="44" parent="43" style="line;strokeWidth=1;fillColor=none;align=left;verticalAlign=middle;spacingTop=-1;spacingLeft=3;spacingRight=3;rotatable=0;labelPosition=right;points=[];portConstraint=eastwest;" vertex="1"><mxGeometry as="geometry" height="8" width="225" y="26"/></mxCell><mxCell id="45" parent="43" style="text;html=1;strokeColor=none;fillColor=none;align=left;verticalAlign=middle;spacingLeft=4;spacingRight=4;overflow=hidden;rotatable=0;points=[[0,0.5],[1,0.5]];portConstraint=eastwest;" value="+ Turm(farbe:String, x:int, y:int, board:Board)" vertex="1"><mxGeometry as="geometry" height="19" width="225" y="34"/></mxCell><mxCell id="46" parent="43" style="text;html=1;strokeColor=none;fillColor=none;align=left;verticalAlign=middle;spacingLeft=4;spacingRight=4;overflow=hidden;rotatable=0;points=[[0,0.5],[1,0.5]];portConstraint=eastwest;" value="+ getName(): String" vertex="1"><mxGeometry as="geometry" height="19" width="225" y="50"/></mxCell><mxCell id="47" parent="43" style="text;html=1;strokeColor=none;fillColor=none;align=left;verticalAlign=middle;spacingLeft=4;spacingRight=4;overflow=hidden;rotatable=0;points=[[0,0.5],[1,0.5]];portConstraint=eastwest;" value="+ getWert(): int" vertex="1"><mxGeometry as="geometry" height="19" width="225" y="66"/></mxCell><mxCell id="48" parent="43" style="text;html=1;strokeColor=none;fillColor=none;align=left;verticalAlign=middle;spacingLeft=4;spacingRight=4;overflow=hidden;rotatable=0;points=[[0,0.5],[1,0.5]];portConstraint=eastwest;" value="+ getMoeglicheZuege(): Zug[]" vertex="1"><mxGeometry as="geometry" height="19" width="225" y="82"/></mxCell><mxCell id="49" parent="1" style="swimlane;fontStyle=0;align=center;verticalAlign=top;childLayout=stackLayout;horizontal=1;startSize=30;horizontalStack=0;resizeParent=1;resizeParentMax=0;resizeLast=0;collapsible=0;marginBottom=0;html=1;" value="Dame" vertex="1"><mxGeometry as="geometry" height="138" width="225" x="790" y="740"/></mxCell><mxCell id="50" parent="49" style="line;strokeWidth=1;fillColor=none;align=left;verticalAlign=middle;spacingTop=-1;spacingLeft=3;spacingRight=3;rotatable=0;labelPosition=right;points=[];portConstraint=eastwest;" vertex="1"><mxGeometry as="geometry" height="8" width="225" y="26"/></mxCell><mxCell id="51" parent="49" style="text;html=1;strokeColor=none;fillColor=none;align=left;verticalAlign=middle;spacingLeft=4;spacingRight=4;overflow=hidden;rotatable=0;points=[[0,0.5],[1,0.5]];portConstraint=eastwest;" value="+ Dame(farbe:String, x:int, y:int, board:Board)" vertex="1"><mxGeometry as="geometry" height="19" width="225" y="34"/></mxCell><mxCell id="52" parent="49" style="text;html=1;strokeColor=none;fillColor=none;align=left;verticalAlign=middle;spacingLeft=4;spacingRight=4;overflow=hidden;rotatable=0;points=[[0,0.5],[1,0.5]];portConstraint=eastwest;" value="+ getName(): String" vertex="1"><mxGeometry as="geometry" height="19" width="225" y="50"/></mxCell><mxCell id="53" parent="49" style="text;html=1;strokeColor=none;fillColor=none;align=left;verticalAlign=middle;spacingLeft=4;spacingRight=4;overflow=hidden;rotatable=0;points=[[0,0.5],[1,0.5]];portConstraint=eastwest;" value="+ getWert(): int" vertex="1"><mxGeometry as="geometry" height="19" width="225" y="66"/></mxCell><mxCell id="54" parent="49" style="text;html=1;strokeColor=none;fillColor=none;align=left;verticalAlign=middle;spacingLeft=4;spacingRight=4;overflow=hidden;rotatable=0;points=[[0,0.5],[1,0.5]];portConstraint=eastwest;" value="+ getMoeglicheZuege(): Zug[]" vertex="1"><mxGeometry as="geometry" height="19" width="225" y="82"/></mxCell><mxCell id="55" parent="1" style="swimlane;fontStyle=0;align=center;verticalAlign=top;childLayout=stackLayout;horizontal=1;startSize=30;horizontalStack=0;resizeParent=1;resizeParentMax=0;resizeLast=0;collapsible=0;marginBottom=0;html=1;" value="Springer" vertex="1"><mxGeometry as="geometry" height="138" width="225" x="70" y="1400"/></mxCell><mxCell id="56" parent="55" style="line;strokeWidth=1;fillColor=none;align=left;verticalAlign=middle;spacingTop=-1;spacingLeft=3;spacingRight=3;rotatable=0;labelPosition=right;points=[];portConstraint=eastwest;" vertex="1"><mxGeometry as="geometry" height="8" width="225" y="26"/></mxCell><mxCell id="57" parent="55" style="text;html=1;strokeColor=none;fillColor=none;align=left;verticalAlign=middle;spacingLeft=4;spacingRight=4;overflow=hidden;rotatable=0;points=[[0,0.5],[1,0.5]];portConstraint=eastwest;" value="+ Springer(farbe:String, x:int, y:int, board:Board)" vertex="1"><mxGeometry as="geometry" height="19" width="225" y="34"/></mxCell><mxCell id="58" parent="55" style="text;html=1;strokeColor=none;fillColor=none;align=left;verticalAlign=middle;spacingLeft=4;spacingRight=4;overflow=hidden;rotatable=0;points=[[0,0.5],[1,0.5]];portConstraint=eastwest;" value="+ getName(): String" vertex="1"><mxGeometry as="geometry" height="19" width="225" y="50"/></mxCell><mxCell id="59" parent="55" style="text;html=1;strokeColor=none;fillColor=none;align=left;verticalAlign=middle;spacingLeft=4;spacingRight=4;overflow=hidden;rotatable=0;points=[[0,0.5],[1,0.5]];portConstraint=eastwest;" value="+ getWert(): int" vertex="1"><mxGeometry as="geometry" height="19" width="225" y="66"/></mxCell><mxCell id="60" parent="55" style="text;html=1;strokeColor=none;fillColor=none;align=left;verticalAlign=middle;spacingLeft=4;spacingRight=4;overflow=hidden;rotatable=0;points=[[0,0.5],[1,0.5]];portConstraint=eastwest;" value="+ getMoeglicheZuege(): Zug[]" vertex="1"><mxGeometry as="geometry" height="19" width="225" y="82"/></mxCell><mxCell edge="1" id="61" parent="1" source="2" style="endArrow=block;endSize=16;endFill=0;html=1" target="20" value="Extends"><mxGeometry as="geometry" relative="1" width="160"/></mxCell><mxCell edge="1" id="62" parent="1" source="8" style="endArrow=block;endSize=16;endFill=0;html=1" target="20" value="Extends"><mxGeometry as="geometry" relative="1" width="160"/></mxCell><mxCell edge="1" id="63" parent="1" source="14" style="endArrow=block;endSize=16;endFill=0;html=1" target="20" value="Extends"><mxGeometry as="geometry" relative="1" width="160"/></mxCell><mxCell edge="1" id="64" parent="1" source="43" style="endArrow=block;endSize=16;endFill=0;html=1" target="20" value="Extends"><mxGeometry as="geometry" relative="1" width="160"/></mxCell><mxCell edge="1" id="65" parent="1" source="49" style="endArrow=block;endSize=16;endFill=0;html=1" target="20" value="Extends"><mxGeometry as="geometry" relative="1" width="160"/></mxCell><mxCell edge="1" id="66" parent="1" source="55" style="endArrow=block;endSize=16;endFill=0;html=1" target="20" value="Extends"><mxGeometry as="geometry" relative="1" width="160"/></mxCell></root></mxGraphModel></diagram>